HIERARCHY
ROOT Pelvis
{
	OFFSET 0.000000 0.000000 0.000000
	CHANNELS 6 Xposition Yposition Zposition Xrotation Yrotation Zrotation
	JOINT LeftUpLeg_virtual
	{
		OFFSET 0.000000 0.000000 0.000000
		CHANNELS 3 Xrotation Yrotation Zrotation
		JOINT LeftUpLeg
		{
			OFFSET 18.735201 -5.666702 -4.541200
			CHANNELS 3 Xrotation Yrotation Zrotation
			JOINT LeftLeg
			{
				OFFSET -0.021200 -31.938179 0.493100
				CHANNELS 3 Xrotation Yrotation Zrotation
				JOINT LeftFoot
				{
					OFFSET 0.021200 -31.938179 -4.336299
					CHANNELS 3 Xrotation Yrotation Zrotation
					JOINT LeftToeBase
					{
						OFFSET 0.943001 -26.722000 15.023500
						CHANNELS 3 Xrotation Yrotation Zrotation
						End Site
						{
							OFFSET 0 0 0
						}
					}
				}
			}
		}
	}
	JOINT RightUpLeg_virtual
	{
		OFFSET 0.000000 0.000000 0.000000
		CHANNELS 3 Xrotation Yrotation Zrotation
		JOINT RightUpLeg
		{
			OFFSET -18.735201 -5.666702 -4.541200
			CHANNELS 3 Xrotation Yrotation Zrotation
			JOINT RightLeg
			{
				OFFSET 0.018946 -31.938133 0.493100
				CHANNELS 3 Xrotation Yrotation Zrotation
				JOINT RightFoot
				{
					OFFSET -0.018946 -31.938126 -4.336299
					CHANNELS 3 Xrotation Yrotation Zrotation
					JOINT RightToeBase
					{
						OFFSET -0.943001 -26.722004 15.023500
						CHANNELS 3 Xrotation Yrotation Zrotation
						End Site
						{
							OFFSET 0 0 0
						}
					}
				}
			}
		}
	}
	JOINT Hips_virtual
	{
		OFFSET 0.000000 0.000000 0.000000
		CHANNELS 3 Xrotation Yrotation Zrotation
		JOINT Hips
		{
			OFFSET -0.000000 -0.000000 -0.000000
			CHANNELS 3 Xrotation Yrotation Zrotation
			JOINT Spine
			{
				OFFSET 0.000000 10.199997 -0.299500
				CHANNELS 3 Xrotation Yrotation Zrotation
				JOINT Spine1
				{
					OFFSET 0.000000 11.900002 -1.516600
					CHANNELS 3 Xrotation Yrotation Zrotation
					JOINT Spine2
					{
						OFFSET 0.000000 13.600006 -2.842500
						CHANNELS 3 Xrotation Yrotation Zrotation
						JOINT Neck_virtual
						{
							OFFSET 0.000000 0.000000 0.000000
							CHANNELS 3 Xrotation Yrotation Zrotation
							JOINT Neck
							{
								OFFSET 0.000000 9.624100 -2.890100
								CHANNELS 3 Xrotation Yrotation Zrotation
								JOINT Head
								{
									OFFSET 0.000000 14.068802 -1.351900
									CHANNELS 3 Xrotation Yrotation Zrotation
									End Site
									{
										OFFSET 0 0 0
									}
								}
							}
						}
						JOINT LeftShoulder_virtual
						{
							OFFSET 0.000000 0.000000 0.000000
							CHANNELS 3 Xrotation Yrotation Zrotation
							JOINT LeftShoulder
							{
								OFFSET 15.263000 10.923401 -0.547700
								CHANNELS 3 Xrotation Yrotation Zrotation
								JOINT LeftArm
								{
									OFFSET 25.438599 -2.830597 -13.032500
									CHANNELS 3 Xrotation Yrotation Zrotation
									JOINT LeftForeArm
									{
										OFFSET 29.960503 0.000000 0.000000
										CHANNELS 3 Xrotation Yrotation Zrotation
										JOINT LeftHand
										{
											OFFSET 27.849251 0.000000 0.000000
											CHANNELS 3 Xrotation Yrotation Zrotation
											End Site
											{
												OFFSET 0 0 0
											}
										}
									}
								}
							}
						}
						JOINT RightShoulder_virtual
						{
							OFFSET 0.000000 0.000000 0.000000
							CHANNELS 3 Xrotation Yrotation Zrotation
							JOINT RightShoulder
							{
								OFFSET -15.263000 10.923401 -0.547700
								CHANNELS 3 Xrotation Yrotation Zrotation
								JOINT RightArm
								{
									OFFSET -25.438599 -2.830597 -13.032500
									CHANNELS 3 Xrotation Yrotation Zrotation
									JOINT RightForeArm
									{
										OFFSET -29.960503 0.000000 0.000000
										CHANNELS 3 Xrotation Yrotation Zrotation
										JOINT RightHand
										{
											OFFSET -27.849251 0.000000 0.000000
											CHANNELS 3 Xrotation Yrotation Zrotation
											End Site
											{
												OFFSET 0 0 0
											}
										}
									}
								}
							}
						}
					}
				}
			}
		}
	}
}
MOTION
Frames: 12
Frame Time: 0.03333333
-3.778108 79.058952 0.730171 0.000000 0.000000 0.000000 -10.552886 -45.231828 -0.511970 -35.899426 7.332725 17.740721 61.958142 -7.564160 7.958343 -15.048018 -8.841098 -14.044061 0.000000 0.000000 0.000000 -9.862210 -45.217720 -1.395438 -21.637032 -5.157754 -36.201328 67.615143 -5.649029 -2.043502 -36.148032 -20.562817 39.086079 0.000000 0.000000 0.000000 -9.161142 -44.718468 0.069217 -0.611050 2.367447 -0.651240 10.184800 6.894127 -2.846874 4.688556 1.063412 -2.200571 0.000000 0.000000 0.000000 2.781216 0.385837 -1.041303 4.096534 1.211104 -0.539152 0.000000 0.000000 0.000000 2.886577 0.850725 -1.146813 2.172669 4.716524 -8.458976 -53.542423 -2.820284 -52.336096 178.772524 -74.828534 -179.921608 0.000000 0.000000 0.000000 2.221839 0.713041 -1.686440 6.162453 8.715486 -6.818307 -55.145332 21.201016 83.224919 176.359938 67.293592 -172.959501 0.000000 0.000000 0.000000 
-3.569541 79.355804 0.906303 0.000000 0.000000 0.000000 -10.933421 -46.127959 -0.415958 -35.552391 7.312707 18.080400 61.594216 -7.885610 7.942025 -14.971474 -9.515108 -14.268153 0.000000 0.000000 0.000000 -10.556348 -46.101188 -1.472396 -21.723953 -4.011780 -36.772250 67.097374 -4.933239 -2.582816 -32.595415 -18.784960 41.527994 0.000000 0.000000 0.000000 -9.613964 -45.302650 0.247186 -0.858306 2.454662 -0.904898 10.025148 7.443853 -2.124995 4.676098 1.571328 -2.367638 0.000000 0.000000 0.000000 3.039974 0.745185 -1.473489 3.891853 1.183589 -0.532249 0.000000 0.000000 0.000000 3.083982 1.276711 -1.417133 2.278314 3.871563 -9.291181 -51.592613 -4.263860 -54.573874 179.131082 -76.119193 179.841517 0.000000 0.000000 0.000000 2.489237 1.088331 -2.082322 5.828659 9.845133 -6.405152 -54.509902 22.024958 81.488822 176.370552 70.370442 -172.863468 0.000000 0.000000 0.000000 
-3.197057 79.951294 1.349876 0.000000 0.000000 0.000000 -10.926072 -48.378636 0.555899 -33.953772 7.681721 17.488734 59.261371 -7.639374 6.993073 -14.910798 -9.312600 -14.930643 0.000000 0.000000 0.000000 -11.007312 -47.900035 -0.569162 -21.368542 -1.871572 -36.745475 66.312326 -4.809658 -3.933879 -28.887462 -16.535036 41.004696 0.000000 0.000000 0.000000 -10.199579 -47.013596 1.073465 -0.890141 2.151699 -1.202021 9.260730 8.226229 -0.873515 4.745384 2.447925 -2.587951 0.000000 0.000000 0.000000 3.325823 1.600463 -2.055581 3.381681 1.051866 -0.514474 0.000000 0.000000 0.000000 3.291636 2.135338 -1.743858 2.037850 2.080113 -9.613345 -47.261695 -7.404174 -58.663218 -179.987137 -80.910530 -179.705446 0.000000 0.000000 0.000000 2.967869 2.033670 -2.428462 5.686446 12.435935 -4.060974 -52.572185 24.051097 76.462882 176.078848 73.518818 -172.477153 0.000000 0.000000 0.000000 
-2.850488 80.662392 1.900196 0.000000 0.000000 0.000000 -10.436947 -51.810605 2.248824 -31.439566 8.622777 16.199708 55.871378 -6.653235 5.337121 -14.866653 -8.150541 -15.816261 0.000000 0.000000 0.000000 -10.883327 -50.526512 1.191072 -21.284189 0.794159 -36.272741 65.555575 -5.261801 -5.586652 -27.236240 -14.722167 37.291983 0.000000 0.000000 0.000000 -10.669669 -49.900167 2.415535 -0.798893 1.543465 -1.469640 8.241188 8.895756 0.854689 5.051279 3.438434 -2.540464 0.000000 0.000000 0.000000 3.782076 2.679290 -2.363032 2.670000 0.858646 -0.461474 0.000000 0.000000 0.000000 3.695914 3.204561 -1.773991 1.528349 -0.051324 -8.836386 -41.152849 -11.213627 -63.280787 -174.994077 -87.737215 -174.834005 0.000000 0.000000 0.000000 3.721488 3.235729 -2.396710 5.631675 15.707939 -0.413101 -50.351697 27.969109 69.799957 175.480674 76.536750 -171.985898 0.000000 0.000000 0.000000 
-2.406263 81.357269 2.533447 0.000000 0.000000 0.000000 -9.165851 -56.041835 4.534061 -28.359533 10.208022 14.649996 52.293188 -4.915052 3.302342 -14.773382 -5.967255 -16.691934 0.000000 0.000000 0.000000 -10.203051 -53.975164 3.384047 -22.429636 4.021290 -35.687571 65.167292 -5.552121 -7.117212 -25.984780 -12.353895 33.150173 0.000000 0.000000 0.000000 -10.736221 -53.841258 4.069851 -0.592406 0.795887 -1.498370 7.440424 9.043121 3.010159 5.787028 4.207197 -1.974091 0.000000 0.000000 0.000000 4.523394 3.678204 -2.088664 1.862809 0.627399 -0.336743 0.000000 0.000000 0.000000 4.570819 4.170070 -1.297561 0.877110 -1.912184 -6.768038 -33.113286 -13.874984 -67.382869 -4.916030 -85.006916 -4.500867 0.000000 0.000000 0.000000 4.933626 4.298130 -1.809664 5.649239 18.795089 3.400086 -49.182529 34.805647 63.274306 174.293040 79.663358 -171.222625 0.000000 0.000000 0.000000 
-1.857767 81.927628 2.689095 0.000000 0.000000 0.000000 -6.869983 -60.645468 7.261963 -25.154856 12.163519 13.267030 49.281218 -2.554135 1.229785 -14.693036 -2.763262 -17.278989 0.000000 0.000000 0.000000 -8.997735 -58.304004 5.586083 -25.832450 7.835224 -34.868526 64.889263 -4.924535 -8.275980 -22.608585 -8.417841 30.750710 0.000000 0.000000 0.000000 -9.675960 -58.749872 6.018860 -0.584967 0.038706 -1.141091 7.573133 8.354817 5.414217 7.160093 4.521239 -0.841071 0.000000 0.000000 0.000000 5.841970 4.284819 -1.118773 1.119316 0.368599 -0.090599 0.000000 0.000000 0.000000 6.054351 4.731968 -0.280347 0.202642 -3.331195 -3.402977 -23.424081 -14.167229 -70.564030 -3.234145 -79.540784 -2.307153 0.000000 0.000000 0.000000 6.754637 4.893081 -0.706087 5.781750 20.866233 6.567602 -50.666739 45.111299 59.182640 172.282356 82.200493 -169.834634 0.000000 0.000000 0.000000 
-1.172533 82.386978 2.344597 0.000000 0.000000 0.000000 -3.321872 -65.771662 10.460164 -22.226105 14.120681 12.246077 47.270800 0.137782 -0.601019 -14.713424 1.309698 -17.470604 0.000000 0.000000 0.000000 -6.777793 -63.513444 7.984337 -31.476292 11.835605 -33.129689 64.395153 -3.417202 -8.876520 -17.380396 -3.251551 29.429028 0.000000 0.000000 0.000000 -7.028365 -64.442657 8.363327 -0.789021 -0.606236 -0.695044 8.985183 6.849034 7.856157 9.210641 4.335722 0.649051 0.000000 0.000000 0.000000 7.854313 4.365655 0.349039 0.557257 0.121767 0.275769 0.000000 0.000000 0.000000 8.206772 4.777249 1.054407 -0.429999 -4.398497 0.815889 -12.394631 -12.770501 -73.412342 -2.697933 -76.635911 -1.240947 0.000000 0.000000 0.000000 9.176515 4.868674 0.673009 6.091957 21.718586 8.606444 -57.682648 58.069223 61.648741 170.435281 83.624738 -168.851688 0.000000 0.000000 0.000000 
-0.369556 82.698166 1.450775 0.000000 0.000000 0.000000 2.104785 -71.482035 14.774732 -19.637308 15.834095 11.603286 45.987373 2.757392 -2.049362 -15.102605 5.857488 -17.574212 0.000000 0.000000 0.000000 -3.121833 -69.649228 10.904184 -38.316873 14.680158 -29.780113 62.546276 -1.732769 -8.646064 -12.544067 1.716067 27.751081 0.000000 0.000000 0.000000 -1.952422 -70.567247 11.972600 -0.907626 -0.996179 -0.620646 11.724147 4.710292 10.077427 11.838457 3.712720 2.036197 0.000000 0.000000 0.000000 10.567675 3.872888 1.813326 0.263034 -0.107988 0.732735 0.000000 0.000000 0.000000 10.770622 4.228434 2.276743 -0.990711 -5.650036 5.171996 -0.994334 -11.703336 -76.180993 -2.112831 -75.879290 -0.450690 0.000000 0.000000 0.000000 12.046586 4.269996 1.956664 6.330678 21.556912 9.617040 -77.451620 69.341822 78.439750 168.995177 84.235166 -168.420430 0.000000 0.000000 0.000000 
0.401764 82.790962 0.053493 0.000000 0.000000 0.000000 11.329530 -77.437324 22.450702 -17.454192 17.360024 11.323280 44.927308 4.973232 -3.207358 -15.890633 10.289899 -18.102172 0.000000 0.000000 0.000000 3.593296 -76.133564 16.133250 -44.983414 15.467045 -24.869801 58.949396 -0.461327 -7.562486 -9.798279 5.333710 25.427070 0.000000 0.000000 0.000000 7.000831 -76.593133 18.832003 -0.982258 -1.084672 -0.707008 15.437711 2.200699 11.822646 14.776445 2.760321 2.964264 0.000000 0.000000 0.000000 13.776805 2.885550 2.867466 0.256618 -0.310772 1.212798 0.000000 0.000000 0.000000 13.521655 3.131253 3.054839 -1.332574 -7.282039 9.096444 9.238185 -12.363535 -78.270478 -0.973587 -76.035872 0.298895 0.000000 0.000000 0.000000 15.022578 3.195530 2.819564 6.342124 20.680978 10.155925 -110.471036 72.969677 109.921827 168.915824 83.981055 -169.319638 0.000000 0.000000 0.000000 
1.107764 82.789360 -1.281311 0.000000 0.000000 0.000000 31.658108 -82.690969 41.230427 -15.756184 18.947206 11.291191 43.888702 6.639949 -4.189961 -16.591368 14.122750 -19.333743 0.000000 0.000000 0.000000 18.152966 -82.009323 28.967519 -50.453788 14.536485 -19.523729 54.334442 0.127879 -5.985573 -8.445445 7.697315 22.944067 0.000000 0.000000 0.000000 24.521033 -81.856184 34.346699 -1.037448 -1.020307 -0.789627 19.354697 -0.379818 12.868372 17.553089 1.619638 3.236999 0.000000 0.000000 0.000000 16.910934 1.576540 3.238368 0.448694 -0.497844 1.597341 0.000000 0.000000 0.000000 16.213201 1.683950 3.200455 -1.433743 -9.136946 12.150498 17.319591 -14.302996 -79.015262 0.210748 -75.248262 0.654531 0.000000 0.000000 0.000000 17.811228 1.821152 3.088320 6.106000 19.593028 10.713379 -128.352068 71.431696 126.980279 170.173685 82.720284 -171.433882 0.000000 0.000000 0.000000 
1.655139 82.688774 -2.276520 0.000000 0.000000 0.000000 78.673718 -85.167418 87.072775 -14.298298 20.578849 11.293175 42.931390 7.782465 -4.966610 -16.943930 17.117935 -20.918590 0.000000 0.000000 0.000000 58.842660 -85.862274 68.182712 -54.245612 12.990686 -14.631293 50.093089 0.312071 -4.524203 -6.575526 9.519529 20.563599 0.000000 0.000000 0.000000 63.328066 -84.979137 71.741862 -1.064091 -0.878962 -0.747095 22.801366 -2.879787 13.143917 19.796627 0.420700 2.912213 0.000000 0.000000 0.000000 19.449544 0.152570 2.943482 0.740213 -0.667516 1.780574 0.000000 0.000000 0.000000 18.510883 0.158639 2.803766 -1.340361 -10.775136 14.153214 22.157552 -15.848875 -78.358095 1.148808 -72.887517 0.592564 0.000000 0.000000 0.000000 20.088971 0.455466 2.786341 5.747207 18.868814 11.533696 -125.602138 71.045415 123.519163 172.293803 80.450831 -174.157133 0.000000 0.000000 0.000000 
1.950661 82.577316 -2.858231 0.000000 0.000000 0.000000 120.828765 -84.066542 128.690941 -12.838570 21.946153 11.174412 42.198230 8.608157 -5.471670 -17.110983 19.192985 -22.168738 0.000000 0.000000 0.000000 114.973804 -85.534760 123.443211 -56.450431 11.934401 -10.794410 47.862752 0.380586 -3.568261 -3.527422 11.024198 18.202591 0.000000 0.000000 0.000000 108.838723 -84.802953 116.702852 -1.266791 -0.817232 -0.671169 25.396242 -5.154243 12.775868 21.319525 -0.729566 2.209725 0.000000 0.000000 0.000000 21.121482 -1.195898 2.212635 1.002311 -0.765758 1.707404 0.000000 0.000000 0.000000 20.286263 -1.228552 2.049241 -1.207423 -11.655213 15.101125 23.469317 -15.014296 -76.884892 1.886793 -69.967932 0.432078 0.000000 0.000000 0.000000 21.612067 -0.778327 2.116951 5.374850 18.772567 12.562759 -105.285358 72.003390 101.983364 175.063486 76.759360 -177.141844 0.000000 0.000000 0.000000 
